<svg xmlns="http://www.w3.org/2000/svg" viewBox="0 0 1440 460" width="1440" height="460" fill="none" aria-hidden="true"><defs>
<radialGradient id="gLime" cx="50%" cy="50%" r="50%"><stop offset="0%" stop-color="#d6ff9a"/><stop offset="35%" stop-color="#86e86a"/><stop offset="100%" stop-color="#86e86a" stop-opacity="0"/></radialGradient>
<radialGradient id="gCyan" cx="50%" cy="50%" r="50%"><stop offset="0%" stop-color="#bafcfc"/><stop offset="35%" stop-color="#33dcdc"/><stop offset="100%" stop-color="#33dcdc" stop-opacity="0"/></radialGradient>
<radialGradient id="gPink" cx="50%" cy="50%" r="50%"><stop offset="0%" stop-color="#ffc4d6"/><stop offset="35%" stop-color="#ff5d86"/><stop offset="100%" stop-color="#ff5d86" stop-opacity="0"/></radialGradient>
<radialGradient id="gYellow" cx="50%" cy="50%" r="50%"><stop offset="0%" stop-color="#fff0b8"/><stop offset="40%" stop-color="#ffc63b"/><stop offset="100%" stop-color="#ffc63b" stop-opacity="0"/></radialGradient>
<linearGradient id="cBG" x1="0" y1="0" x2="1" y2="0"><stop offset="0%" stop-color="#2bb3ff" stop-opacity="0"/><stop offset="55%" stop-color="#2bb3ff"/><stop offset="100%" stop-color="#33e0a6"/></linearGradient>
<linearGradient id="cPR" x1="0" y1="0" x2="1" y2="0"><stop offset="0%" stop-color="#ff5d86" stop-opacity="0"/><stop offset="55%" stop-color="#ff5d86"/><stop offset="100%" stop-color="#ff2e6a"/></linearGradient>
<linearGradient id="cPB" x1="0" y1="0" x2="1" y2="0"><stop offset="0%" stop-color="#c98cff" stop-opacity="0"/><stop offset="55%" stop-color="#c98cff"/><stop offset="100%" stop-color="#4aa8ff"/></linearGradient>
<linearGradient id="cYO" x1="0" y1="0" x2="1" y2="0"><stop offset="0%" stop-color="#9ee85a" stop-opacity="0"/><stop offset="55%" stop-color="#9ee85a"/><stop offset="100%" stop-color="#ffce4a"/></linearGradient>
</defs><path transform="translate(404.7 441.0)" d="M0 -101.3C144.7 -141.6 84.9 130.5 0 130.3C-90.7 148.8 -116.9 -117.1 0 -149.1Z" fill="#0a3a30" opacity="0.5"/><path transform="translate(196.6 166.1)" d="M0 -83.3C122.2 -117.4 127.9 86.4 0 92.8C-105.6 102.0 -81.0 -76.9 0 -99.8Z" fill="#0a3a30" opacity="0.5"/><path transform="translate(1100.4 117.1)" d="M0 -56.5C43.5 -44.1 54.0 41.0 0 59.7C-45.9 47.1 -47.4 -44.2 0 -55.7Z" fill="#0a3a30" opacity="0.5"/><path transform="translate(592.5 433.4)" d="M0 -37.3C38.0 -39.9 32.9 32.5 0 37.9C-54.0 47.8 -59.5 -43.8 0 -43.8Z" fill="#0a3a30" opacity="0.5"/><path transform="translate(1337.6 154.8)" d="M0 -158.4C129.6 -102.0 158.8 165.4 0 151.8C-147.5 105.5 -115.8 -139.9 0 -160.9Z" fill="#0a3a30" opacity="0.5"/><g transform="translate(360.0 174.1) rotate(103.5)" opacity="0.85"><path d="M0 0Q38.8 -11.4 64.6 0Q38.8 11.4 0 0Z" fill="url(#cBG)"/></g><g transform="translate(284.8 145.3) rotate(81.2)" opacity="0.85"><path d="M0 0Q29.2 -10.1 48.7 0Q29.2 10.1 0 0Z" fill="url(#cPR)"/></g><g transform="translate(1005.5 300.5) rotate(238.3)" opacity="0.85"><path d="M0 0Q25.0 -8.5 41.7 0Q25.0 8.5 0 0Z" fill="url(#cBG)"/></g><g transform="translate(528.6 260.7) rotate(281.3)" opacity="0.85"><path d="M0 0Q67.3 -8.0 112.1 0Q67.3 8.0 0 0Z" fill="url(#cYO)"/></g><g transform="translate(534.3 88.3) rotate(33.6)" opacity="0.85"><path d="M0 0Q28.3 -7.6 47.1 0Q28.3 7.6 0 0Z" fill="url(#cBG)"/></g><g transform="translate(713.3 79.8) rotate(144.4)" opacity="0.85"><path d="M0 0Q27.7 -7.8 46.1 0Q27.7 7.8 0 0Z" fill="url(#cBG)"/></g><g transform="translate(662.9 398.1) rotate(124.4)" opacity="0.85"><path d="M0 0Q24.4 -11.2 40.7 0Q24.4 11.2 0 0Z" fill="url(#cBG)"/></g><g transform="translate(1276.1 403.8) rotate(79.1)" opacity="0.85"><path d="M0 0Q47.4 -11.9 79.0 0Q47.4 11.9 0 0Z" fill="url(#cYO)"/></g><g transform="translate(814.2 36.2) rotate(47.7)" opacity="0.85"><path d="M0 0Q61.0 -8.4 101.6 0Q61.0 8.4 0 0Z" fill="url(#cPR)"/></g><g transform="translate(139.1 97.2) rotate(93.8)" opacity="0.85"><path d="M0 0Q61.7 -7.9 102.9 0Q61.7 7.9 0 0Z" fill="url(#cYO)"/></g><g transform="translate(1406.2 336.1) rotate(323.8)" opacity="0.85"><path d="M0 0Q26.2 -9.5 43.6 0Q26.2 9.5 0 0Z" fill="url(#cPR)"/></g><circle cx="515.1" cy="361.2" r="7.6" fill="url(#gLime)"/><circle cx="754.3" cy="401.6" r="9.6" fill="url(#gCyan)"/><circle cx="969.7" cy="333.7" r="17.0" fill="url(#gCyan)"/><circle cx="56.5" cy="74.9" r="5.4" fill="url(#gPink)"/><circle cx="723.4" cy="8.6" r="14.7" fill="url(#gPink)"/><circle cx="413.8" cy="140.1" r="12.9" fill="url(#gPink)"/><circle cx="848.3" cy="372.2" r="16.9" fill="url(#gLime)"/><circle cx="92.2" cy="99.2" r="9.1" fill="url(#gPink)"/><circle cx="252.1" cy="82.0" r="16.5" fill="url(#gCyan)"/><circle cx="544.0" cy="442.5" r="15.5" fill="url(#gCyan)"/><circle cx="98.2" cy="87.6" r="5.6" fill="url(#gPink)"/><circle cx="616.2" cy="202.4" r="7.7" fill="url(#gCyan)"/><circle cx="1402.9" cy="447.2" r="14.4" fill="url(#gPink)"/><circle cx="353.4" cy="316.3" r="13.8" fill="url(#gYellow)"/><circle cx="397.6" cy="39.7" r="15.9" fill="url(#gYellow)"/><path transform="translate(929.4 46.9) rotate(40.3)" d="M0 0Q30.1 -30.1 60.2 0" fill="none" stroke="#37acff" stroke-width="3.4" stroke-dasharray="1.5 9" stroke-linecap="round" opacity="0.85"/><path transform="translate(38.0 14.7) rotate(247.0)" d="M0 0Q48.1 -48.1 96.3 0" fill="none" stroke="#36d99c" stroke-width="3.4" stroke-dasharray="1.5 9" stroke-linecap="round" opacity="0.85"/><path transform="translate(608.9 18.0) rotate(182.8)" d="M0 0Q47.5 -47.5 95.1 0" fill="none" stroke="#36d99c" stroke-width="3.4" stroke-dasharray="1.5 9" stroke-linecap="round" opacity="0.85"/><path transform="translate(26.5 260.3) rotate(17.6)" d="M0 0Q61.8 -61.8 123.7 0" fill="none" stroke="#36d99c" stroke-width="3.4" stroke-dasharray="1.5 9" stroke-linecap="round" opacity="0.85"/><path transform="translate(653.4 432.0) rotate(11.7)" d="M0 0Q60.2 -60.2 120.5 0" fill="none" stroke="#33dcdc" stroke-width="3.4" stroke-dasharray="1.5 9" stroke-linecap="round" opacity="0.85"/><path transform="translate(1139.8 315.1) rotate(14.3)" d="M0 0Q44.5 -44.5 89.0 0" fill="none" stroke="#ff5d86" stroke-width="3.4" stroke-dasharray="1.5 9" stroke-linecap="round" opacity="0.85"/><path transform="translate(298.6 453.7) rotate(218.5)" d="M0 0Q62.1 -62.1 124.1 0" fill="none" stroke="#ff8a47" stroke-width="3.4" stroke-dasharray="1.5 9" stroke-linecap="round" opacity="0.85"/></svg>